<mxfile host="app.diagrams.net" agent="Mozilla/5.0 (Windows NT 10.0; Win64; x64) AppleWebKit/537.36 (KHTML, like Gecko) Chrome/133.0.0.0 Safari/537.36" version="26.0.4">
  <diagram id="C5RBs43oDa-KdzZeNtuy" name="Page-1">
    <mxGraphModel dx="2876" dy="1054" grid="1" gridSize="10" guides="1" tooltips="1" connect="1" arrows="1" fold="1" page="1" pageScale="1" pageWidth="827" pageHeight="1169" math="0" shadow="0">
      <root>
        <mxCell id="WIyWlLk6GJQsqaUBKTNV-0" />
        <mxCell id="WIyWlLk6GJQsqaUBKTNV-1" parent="WIyWlLk6GJQsqaUBKTNV-0" />
        <mxCell id="9c52_iwOYSgnLn3xxYBy-219" value="" style="rounded=0;whiteSpace=wrap;html=1;" vertex="1" parent="WIyWlLk6GJQsqaUBKTNV-1">
          <mxGeometry x="16" y="1740" width="274" height="270" as="geometry" />
        </mxCell>
        <mxCell id="9c52_iwOYSgnLn3xxYBy-35" value="" style="rounded=0;whiteSpace=wrap;html=1;fillColor=#F5F5F5;" vertex="1" parent="WIyWlLk6GJQsqaUBKTNV-1">
          <mxGeometry x="10" y="620" width="810" height="500" as="geometry" />
        </mxCell>
        <mxCell id="9c52_iwOYSgnLn3xxYBy-46" value="" style="rounded=0;whiteSpace=wrap;html=1;" vertex="1" parent="WIyWlLk6GJQsqaUBKTNV-1">
          <mxGeometry x="30" y="700" width="310" height="230" as="geometry" />
        </mxCell>
        <mxCell id="9c52_iwOYSgnLn3xxYBy-31" value="" style="rounded=0;whiteSpace=wrap;html=1;fillColor=#F5F5F5;" vertex="1" parent="WIyWlLk6GJQsqaUBKTNV-1">
          <mxGeometry x="10" y="50" width="810" height="490" as="geometry" />
        </mxCell>
        <mxCell id="9c52_iwOYSgnLn3xxYBy-32" value="" style="rounded=1;whiteSpace=wrap;html=1;" vertex="1" parent="WIyWlLk6GJQsqaUBKTNV-1">
          <mxGeometry x="30" y="130" width="360" height="390" as="geometry" />
        </mxCell>
        <mxCell id="zkfFHV4jXpPFQw0GAbJ--0" value="Brain Container" style="swimlane;fontStyle=0;align=center;verticalAlign=top;childLayout=stackLayout;horizontal=1;startSize=26;horizontalStack=0;resizeParent=1;resizeLast=0;collapsible=1;marginBottom=0;rounded=0;shadow=0;strokeWidth=1;fillColor=#f5f5f5;fontColor=#333333;strokeColor=#666666;" parent="WIyWlLk6GJQsqaUBKTNV-1" vertex="1">
          <mxGeometry x="60" y="370" width="160" height="112" as="geometry">
            <mxRectangle x="320" y="120" width="160" height="26" as="alternateBounds" />
          </mxGeometry>
        </mxCell>
        <mxCell id="zkfFHV4jXpPFQw0GAbJ--1" value="Metrics" style="text;align=left;verticalAlign=top;spacingLeft=4;spacingRight=4;overflow=hidden;rotatable=0;points=[[0,0.5],[1,0.5]];portConstraint=eastwest;" parent="zkfFHV4jXpPFQw0GAbJ--0" vertex="1">
          <mxGeometry y="26" width="160" height="26" as="geometry" />
        </mxCell>
        <mxCell id="zkfFHV4jXpPFQw0GAbJ--2" value="Random Variables" style="text;align=left;verticalAlign=top;spacingLeft=4;spacingRight=4;overflow=hidden;rotatable=0;points=[[0,0.5],[1,0.5]];portConstraint=eastwest;rounded=0;shadow=0;html=0;" parent="zkfFHV4jXpPFQw0GAbJ--0" vertex="1">
          <mxGeometry y="52" width="160" height="26" as="geometry" />
        </mxCell>
        <mxCell id="zkfFHV4jXpPFQw0GAbJ--4" value="" style="line;html=1;strokeWidth=1;align=left;verticalAlign=middle;spacingTop=-1;spacingLeft=3;spacingRight=3;rotatable=0;labelPosition=right;points=[];portConstraint=eastwest;" parent="zkfFHV4jXpPFQw0GAbJ--0" vertex="1">
          <mxGeometry y="78" width="160" height="8" as="geometry" />
        </mxCell>
        <mxCell id="zkfFHV4jXpPFQw0GAbJ--5" value="UnixSocket" style="text;align=left;verticalAlign=top;spacingLeft=4;spacingRight=4;overflow=hidden;rotatable=0;points=[[0,0.5],[1,0.5]];portConstraint=eastwest;fillColor=#e1d5e7;strokeColor=#9673a6;" parent="zkfFHV4jXpPFQw0GAbJ--0" vertex="1">
          <mxGeometry y="86" width="160" height="26" as="geometry" />
        </mxCell>
        <mxCell id="zkfFHV4jXpPFQw0GAbJ--12" value="" style="endArrow=block;endSize=10;endFill=0;shadow=0;strokeWidth=1;rounded=0;edgeStyle=elbowEdgeStyle;entryX=0.997;entryY=0.129;entryDx=0;entryDy=0;entryPerimeter=0;exitX=1;exitY=0.5;exitDx=0;exitDy=0;fillColor=#ffe6cc;strokeColor=#d79b00;" parent="WIyWlLk6GJQsqaUBKTNV-1" source="9c52_iwOYSgnLn3xxYBy-13" target="zkfFHV4jXpPFQw0GAbJ--0" edge="1">
          <mxGeometry width="160" relative="1" as="geometry">
            <mxPoint x="290" y="320" as="sourcePoint" />
            <mxPoint x="340" y="224" as="targetPoint" />
            <Array as="points">
              <mxPoint x="300" y="350" />
            </Array>
          </mxGeometry>
        </mxCell>
        <mxCell id="9c52_iwOYSgnLn3xxYBy-11" value="cam1&lt;span style=&quot;background-color: light-dark(#ffffff, var(--ge-dark-color, #121212)); color: light-dark(rgb(0, 0, 0), rgb(255, 255, 255));&quot;&gt;.socket&lt;/span&gt;" style="edgeLabel;html=1;align=center;verticalAlign=middle;resizable=0;points=[];" vertex="1" connectable="0" parent="zkfFHV4jXpPFQw0GAbJ--12">
          <mxGeometry x="-0.2793" y="1" relative="1" as="geometry">
            <mxPoint x="-41" y="-14" as="offset" />
          </mxGeometry>
        </mxCell>
        <mxCell id="zkfFHV4jXpPFQw0GAbJ--16" value="" style="endArrow=block;endSize=10;endFill=0;shadow=0;strokeWidth=1;rounded=0;elbow=vertical;entryX=0;entryY=0.5;entryDx=0;entryDy=0;exitX=1;exitY=0.5;exitDx=0;exitDy=0;fillColor=#e1d5e7;strokeColor=#9673a6;" parent="WIyWlLk6GJQsqaUBKTNV-1" source="zkfFHV4jXpPFQw0GAbJ--5" target="9c52_iwOYSgnLn3xxYBy-24" edge="1">
          <mxGeometry width="160" relative="1" as="geometry">
            <mxPoint x="380" y="183" as="sourcePoint" />
            <mxPoint x="489.9999999999998" y="322" as="targetPoint" />
          </mxGeometry>
        </mxCell>
        <mxCell id="9c52_iwOYSgnLn3xxYBy-22" value="metrics.socket" style="edgeLabel;html=1;align=center;verticalAlign=middle;resizable=0;points=[];" vertex="1" connectable="0" parent="zkfFHV4jXpPFQw0GAbJ--16">
          <mxGeometry x="-0.0823" y="1" relative="1" as="geometry">
            <mxPoint x="-85" y="-8" as="offset" />
          </mxGeometry>
        </mxCell>
        <mxCell id="zkfFHV4jXpPFQw0GAbJ--17" value="Flask App" style="swimlane;fontStyle=0;align=center;verticalAlign=top;childLayout=stackLayout;horizontal=1;startSize=26;horizontalStack=0;resizeParent=1;resizeLast=0;collapsible=1;marginBottom=0;rounded=0;shadow=0;strokeWidth=1;fillColor=#f5f5f5;fontColor=#333333;strokeColor=#666666;" parent="WIyWlLk6GJQsqaUBKTNV-1" vertex="1">
          <mxGeometry x="600" y="404" width="160" height="78" as="geometry">
            <mxRectangle x="550" y="140" width="160" height="26" as="alternateBounds" />
          </mxGeometry>
        </mxCell>
        <mxCell id="9c52_iwOYSgnLn3xxYBy-23" value="Unix to Web Socket" style="text;align=left;verticalAlign=top;spacingLeft=4;spacingRight=4;overflow=hidden;rotatable=0;points=[[0,0.5],[1,0.5]];portConstraint=eastwest;fillColor=#ffe6cc;strokeColor=#d79b00;" vertex="1" parent="zkfFHV4jXpPFQw0GAbJ--17">
          <mxGeometry y="26" width="160" height="26" as="geometry" />
        </mxCell>
        <mxCell id="9c52_iwOYSgnLn3xxYBy-24" value="Unix to Web Socket" style="text;align=left;verticalAlign=top;spacingLeft=4;spacingRight=4;overflow=hidden;rotatable=0;points=[[0,0.5],[1,0.5]];portConstraint=eastwest;fillColor=#e1d5e7;strokeColor=#9673a6;" vertex="1" parent="zkfFHV4jXpPFQw0GAbJ--17">
          <mxGeometry y="52" width="160" height="26" as="geometry" />
        </mxCell>
        <mxCell id="9c52_iwOYSgnLn3xxYBy-7" value="Camera Container" style="swimlane;fontStyle=0;align=center;verticalAlign=top;childLayout=stackLayout;horizontal=1;startSize=26;horizontalStack=0;resizeParent=1;resizeLast=0;collapsible=1;marginBottom=0;rounded=0;shadow=0;strokeWidth=1;fillColor=#f5f5f5;strokeColor=#666666;fontColor=#333333;" vertex="1" parent="WIyWlLk6GJQsqaUBKTNV-1">
          <mxGeometry x="60" y="210" width="160" height="112" as="geometry">
            <mxRectangle x="230" y="140" width="160" height="26" as="alternateBounds" />
          </mxGeometry>
        </mxCell>
        <mxCell id="9c52_iwOYSgnLn3xxYBy-8" value="Camera Frames" style="text;align=left;verticalAlign=top;spacingLeft=4;spacingRight=4;overflow=hidden;rotatable=0;points=[[0,0.5],[1,0.5]];portConstraint=eastwest;" vertex="1" parent="9c52_iwOYSgnLn3xxYBy-7">
          <mxGeometry y="26" width="160" height="26" as="geometry" />
        </mxCell>
        <mxCell id="9c52_iwOYSgnLn3xxYBy-9" value="" style="line;html=1;strokeWidth=1;align=left;verticalAlign=middle;spacingTop=-1;spacingLeft=3;spacingRight=3;rotatable=0;labelPosition=right;points=[];portConstraint=eastwest;" vertex="1" parent="9c52_iwOYSgnLn3xxYBy-7">
          <mxGeometry y="52" width="160" height="8" as="geometry" />
        </mxCell>
        <mxCell id="9c52_iwOYSgnLn3xxYBy-10" value="UnixSocket" style="text;align=left;verticalAlign=top;spacingLeft=4;spacingRight=4;overflow=hidden;rotatable=0;points=[[0,0.5],[1,0.5]];portConstraint=eastwest;fillColor=#ffe6cc;strokeColor=#d79b00;" vertex="1" parent="9c52_iwOYSgnLn3xxYBy-7">
          <mxGeometry y="60" width="160" height="26" as="geometry" />
        </mxCell>
        <mxCell id="9c52_iwOYSgnLn3xxYBy-13" value="UnixSocket&#xa;" style="text;align=left;verticalAlign=top;spacingLeft=4;spacingRight=4;overflow=hidden;rotatable=0;points=[[0,0.5],[1,0.5]];portConstraint=eastwest;fillColor=#ffe6cc;strokeColor=#d79b00;" vertex="1" parent="9c52_iwOYSgnLn3xxYBy-7">
          <mxGeometry y="86" width="160" height="26" as="geometry" />
        </mxCell>
        <mxCell id="9c52_iwOYSgnLn3xxYBy-12" value="" style="endArrow=block;endSize=10;endFill=0;shadow=0;strokeWidth=1;rounded=0;edgeStyle=elbowEdgeStyle;exitX=1;exitY=0.5;exitDx=0;exitDy=0;entryX=0;entryY=0.5;entryDx=0;entryDy=0;fillColor=#ffe6cc;strokeColor=#d79b00;" edge="1" parent="WIyWlLk6GJQsqaUBKTNV-1" source="9c52_iwOYSgnLn3xxYBy-10" target="zkfFHV4jXpPFQw0GAbJ--17">
          <mxGeometry width="160" relative="1" as="geometry">
            <mxPoint x="220" y="310" as="sourcePoint" />
            <mxPoint x="370" y="400" as="targetPoint" />
            <Array as="points">
              <mxPoint x="320" y="380" />
            </Array>
          </mxGeometry>
        </mxCell>
        <mxCell id="9c52_iwOYSgnLn3xxYBy-20" value="cam2.socket" style="edgeLabel;html=1;align=center;verticalAlign=middle;resizable=0;points=[];" vertex="1" connectable="0" parent="WIyWlLk6GJQsqaUBKTNV-1">
          <mxGeometry x="260" y="273.0044827586207" as="geometry" />
        </mxCell>
        <mxCell id="9c52_iwOYSgnLn3xxYBy-21" value="Frontend" style="swimlane;fontStyle=0;align=center;verticalAlign=top;childLayout=stackLayout;horizontal=1;startSize=26;horizontalStack=0;resizeParent=1;resizeLast=0;collapsible=1;marginBottom=0;rounded=0;shadow=0;strokeWidth=1;fillColor=#f5f5f5;fontColor=#333333;strokeColor=#666666;" vertex="1" parent="WIyWlLk6GJQsqaUBKTNV-1">
          <mxGeometry x="600" y="170" width="160" height="110" as="geometry">
            <mxRectangle x="550" y="140" width="160" height="26" as="alternateBounds" />
          </mxGeometry>
        </mxCell>
        <mxCell id="9c52_iwOYSgnLn3xxYBy-27" value="SSH Commands" style="text;align=left;verticalAlign=top;spacingLeft=4;spacingRight=4;overflow=hidden;rotatable=0;points=[[0,0.5],[1,0.5]];portConstraint=eastwest;fillColor=#FFFF33;fontColor=#000000;strokeColor=#B09500;" vertex="1" parent="9c52_iwOYSgnLn3xxYBy-21">
          <mxGeometry y="26" width="160" height="26" as="geometry" />
        </mxCell>
        <mxCell id="9c52_iwOYSgnLn3xxYBy-25" value="Camera frames" style="text;align=left;verticalAlign=top;spacingLeft=4;spacingRight=4;overflow=hidden;rotatable=0;points=[[0,0.5],[1,0.5]];portConstraint=eastwest;fillColor=#ffe6cc;strokeColor=#d79b00;" vertex="1" parent="9c52_iwOYSgnLn3xxYBy-21">
          <mxGeometry y="52" width="160" height="26" as="geometry" />
        </mxCell>
        <mxCell id="9c52_iwOYSgnLn3xxYBy-26" value="Metrics" style="text;align=left;verticalAlign=top;spacingLeft=4;spacingRight=4;overflow=hidden;rotatable=0;points=[[0,0.5],[1,0.5]];portConstraint=eastwest;fillColor=#e1d5e7;strokeColor=#9673a6;" vertex="1" parent="9c52_iwOYSgnLn3xxYBy-21">
          <mxGeometry y="78" width="160" height="26" as="geometry" />
        </mxCell>
        <mxCell id="9c52_iwOYSgnLn3xxYBy-33" value="&lt;font style=&quot;font-size: 19px;&quot; face=&quot;Comic Sans MS&quot;&gt;Docker&lt;/font&gt;" style="text;html=1;align=center;verticalAlign=middle;whiteSpace=wrap;rounded=0;" vertex="1" parent="WIyWlLk6GJQsqaUBKTNV-1">
          <mxGeometry x="180" y="140" width="60" height="30" as="geometry" />
        </mxCell>
        <mxCell id="9c52_iwOYSgnLn3xxYBy-34" value="&lt;font face=&quot;Comic Sans MS&quot;&gt;Raspberry pi Host&lt;/font&gt;" style="text;html=1;align=center;verticalAlign=middle;whiteSpace=wrap;rounded=0;fontSize=24;fontStyle=1" vertex="1" parent="WIyWlLk6GJQsqaUBKTNV-1">
          <mxGeometry x="281.88" y="70" width="266.25" height="30" as="geometry" />
        </mxCell>
        <mxCell id="9c52_iwOYSgnLn3xxYBy-37" value="CHECKPOINTS" style="text;html=1;align=left;verticalAlign=middle;whiteSpace=wrap;rounded=0;fontStyle=1" vertex="1" parent="WIyWlLk6GJQsqaUBKTNV-1">
          <mxGeometry x="30" y="700" width="120" height="20" as="geometry" />
        </mxCell>
        <mxCell id="9c52_iwOYSgnLn3xxYBy-38" value="STATE" style="text;html=1;align=left;verticalAlign=middle;whiteSpace=wrap;rounded=0;fontStyle=1" vertex="1" parent="WIyWlLk6GJQsqaUBKTNV-1">
          <mxGeometry x="30" y="720" width="120" height="20" as="geometry" />
        </mxCell>
        <mxCell id="9c52_iwOYSgnLn3xxYBy-39" value="PREV_EVENT" style="text;html=1;align=left;verticalAlign=middle;whiteSpace=wrap;rounded=0;fontStyle=1" vertex="1" parent="WIyWlLk6GJQsqaUBKTNV-1">
          <mxGeometry x="30" y="740" width="120" height="20" as="geometry" />
        </mxCell>
        <mxCell id="9c52_iwOYSgnLn3xxYBy-40" value="UPCOMING_EVENT" style="text;html=1;align=left;verticalAlign=middle;whiteSpace=wrap;rounded=0;fontStyle=1" vertex="1" parent="WIyWlLk6GJQsqaUBKTNV-1">
          <mxGeometry x="30" y="760" width="120" height="20" as="geometry" />
        </mxCell>
        <mxCell id="9c52_iwOYSgnLn3xxYBy-41" value="ROUTINES" style="text;html=1;align=left;verticalAlign=middle;whiteSpace=wrap;rounded=0;fontStyle=1" vertex="1" parent="WIyWlLk6GJQsqaUBKTNV-1">
          <mxGeometry x="30" y="790" width="120" height="20" as="geometry" />
        </mxCell>
        <mxCell id="9c52_iwOYSgnLn3xxYBy-45" value="CONDITIONS" style="text;html=1;align=left;verticalAlign=middle;whiteSpace=wrap;rounded=0;fontStyle=1" vertex="1" parent="WIyWlLk6GJQsqaUBKTNV-1">
          <mxGeometry x="30" y="860" width="120" height="20" as="geometry" />
        </mxCell>
        <mxCell id="9c52_iwOYSgnLn3xxYBy-47" value="&lt;b&gt;:&lt;/b&gt;" style="text;html=1;align=left;verticalAlign=middle;whiteSpace=wrap;rounded=0;" vertex="1" parent="WIyWlLk6GJQsqaUBKTNV-1">
          <mxGeometry x="150" y="700" width="10" height="20" as="geometry" />
        </mxCell>
        <mxCell id="9c52_iwOYSgnLn3xxYBy-48" value="&lt;b&gt;:&lt;/b&gt;" style="text;html=1;align=left;verticalAlign=middle;whiteSpace=wrap;rounded=0;" vertex="1" parent="WIyWlLk6GJQsqaUBKTNV-1">
          <mxGeometry x="150" y="720" width="10" height="20" as="geometry" />
        </mxCell>
        <mxCell id="9c52_iwOYSgnLn3xxYBy-49" value="&lt;b&gt;:&lt;/b&gt;" style="text;html=1;align=left;verticalAlign=middle;whiteSpace=wrap;rounded=0;" vertex="1" parent="WIyWlLk6GJQsqaUBKTNV-1">
          <mxGeometry x="150" y="740" width="10" height="20" as="geometry" />
        </mxCell>
        <mxCell id="9c52_iwOYSgnLn3xxYBy-50" value="&lt;b&gt;:&lt;/b&gt;" style="text;html=1;align=left;verticalAlign=middle;whiteSpace=wrap;rounded=0;" vertex="1" parent="WIyWlLk6GJQsqaUBKTNV-1">
          <mxGeometry x="150" y="760" width="10" height="20" as="geometry" />
        </mxCell>
        <mxCell id="9c52_iwOYSgnLn3xxYBy-51" value="&lt;b&gt;:&lt;/b&gt;" style="text;html=1;align=left;verticalAlign=middle;whiteSpace=wrap;rounded=0;" vertex="1" parent="WIyWlLk6GJQsqaUBKTNV-1">
          <mxGeometry x="150" y="790" width="10" height="20" as="geometry" />
        </mxCell>
        <mxCell id="9c52_iwOYSgnLn3xxYBy-52" value="&lt;b&gt;:&lt;/b&gt;" style="text;html=1;align=left;verticalAlign=middle;whiteSpace=wrap;rounded=0;" vertex="1" parent="WIyWlLk6GJQsqaUBKTNV-1">
          <mxGeometry x="150" y="860" width="10" height="20" as="geometry" />
        </mxCell>
        <mxCell id="9c52_iwOYSgnLn3xxYBy-54" value="highway" style="text;html=1;align=center;verticalAlign=middle;whiteSpace=wrap;rounded=0;strokeColor=default;fillColor=#00FF00;fontColor=#000000;" vertex="1" parent="WIyWlLk6GJQsqaUBKTNV-1">
          <mxGeometry x="36" y="880" width="80" height="20" as="geometry" />
        </mxCell>
        <mxCell id="9c52_iwOYSgnLn3xxYBy-55" value="car_on_path" style="text;html=1;align=center;verticalAlign=middle;whiteSpace=wrap;rounded=0;strokeColor=default;fillColor=#999999;fontColor=#000000;" vertex="1" parent="WIyWlLk6GJQsqaUBKTNV-1">
          <mxGeometry x="36" y="900" width="80" height="20" as="geometry" />
        </mxCell>
        <mxCell id="9c52_iwOYSgnLn3xxYBy-56" value="can_overtake" style="text;html=1;align=center;verticalAlign=middle;whiteSpace=wrap;rounded=0;strokeColor=default;fillColor=#00FF00;fontColor=#000000;" vertex="1" parent="WIyWlLk6GJQsqaUBKTNV-1">
          <mxGeometry x="116" y="880" width="80" height="20" as="geometry" />
        </mxCell>
        <mxCell id="9c52_iwOYSgnLn3xxYBy-57" value="no_lane" style="text;html=1;align=center;verticalAlign=middle;whiteSpace=wrap;rounded=0;strokeColor=default;fillColor=#999999;fontColor=#000000;" vertex="1" parent="WIyWlLk6GJQsqaUBKTNV-1">
          <mxGeometry x="116" y="900" width="80" height="20" as="geometry" />
        </mxCell>
        <mxCell id="9c52_iwOYSgnLn3xxYBy-60" value="trust_gps" style="text;html=1;align=center;verticalAlign=middle;whiteSpace=wrap;rounded=0;strokeColor=default;fillColor=#00FF00;fontColor=#000000;" vertex="1" parent="WIyWlLk6GJQsqaUBKTNV-1">
          <mxGeometry x="196" y="880" width="80" height="20" as="geometry" />
        </mxCell>
        <mxCell id="9c52_iwOYSgnLn3xxYBy-61" value="rerouting" style="text;html=1;align=center;verticalAlign=middle;whiteSpace=wrap;rounded=0;strokeColor=default;fillColor=#999999;fontColor=#000000;" vertex="1" parent="WIyWlLk6GJQsqaUBKTNV-1">
          <mxGeometry x="196" y="900" width="80" height="20" as="geometry" />
        </mxCell>
        <mxCell id="9c52_iwOYSgnLn3xxYBy-63" value="" style="rounded=1;whiteSpace=wrap;html=1;glass=0;" vertex="1" parent="WIyWlLk6GJQsqaUBKTNV-1">
          <mxGeometry x="36" y="810" width="298" height="40" as="geometry" />
        </mxCell>
        <mxCell id="9c52_iwOYSgnLn3xxYBy-65" value="follow_lane, control_for_sign, accelerate, update_state, detect_stopline" style="text;html=1;align=left;verticalAlign=middle;whiteSpace=wrap;rounded=0;strokeColor=none;fillColor=none;fontColor=#000000;fontSize=10;" vertex="1" parent="WIyWlLk6GJQsqaUBKTNV-1">
          <mxGeometry x="40" y="810" width="290" height="40" as="geometry" />
        </mxCell>
        <mxCell id="9c52_iwOYSgnLn3xxYBy-66" value="CAMERA FEED" style="rounded=0;whiteSpace=wrap;html=1;" vertex="1" parent="WIyWlLk6GJQsqaUBKTNV-1">
          <mxGeometry x="360" y="700" width="260" height="230" as="geometry" />
        </mxCell>
        <mxCell id="9c52_iwOYSgnLn3xxYBy-67" value="" style="rounded=0;whiteSpace=wrap;html=1;" vertex="1" parent="WIyWlLk6GJQsqaUBKTNV-1">
          <mxGeometry x="30" y="950" width="310" height="150" as="geometry" />
        </mxCell>
        <mxCell id="9c52_iwOYSgnLn3xxYBy-68" value="&lt;b&gt;&lt;font face=&quot;Comic Sans MS&quot; style=&quot;font-size: 20px;&quot;&gt;DASHBOARD&lt;/font&gt;&lt;/b&gt;" style="text;html=1;align=center;verticalAlign=middle;whiteSpace=wrap;rounded=0;" vertex="1" parent="WIyWlLk6GJQsqaUBKTNV-1">
          <mxGeometry x="350" y="640" width="120" height="30" as="geometry" />
        </mxCell>
        <mxCell id="9c52_iwOYSgnLn3xxYBy-69" value="START" style="rounded=1;whiteSpace=wrap;html=1;fontStyle=1" vertex="1" parent="WIyWlLk6GJQsqaUBKTNV-1">
          <mxGeometry x="70" y="960" width="100" height="50" as="geometry" />
        </mxCell>
        <mxCell id="9c52_iwOYSgnLn3xxYBy-70" value="STOP" style="rounded=1;whiteSpace=wrap;html=1;fontStyle=1" vertex="1" parent="WIyWlLk6GJQsqaUBKTNV-1">
          <mxGeometry x="200" y="960" width="100" height="50" as="geometry" />
        </mxCell>
        <mxCell id="9c52_iwOYSgnLn3xxYBy-73" value="" style="rounded=0;whiteSpace=wrap;html=1;" vertex="1" parent="WIyWlLk6GJQsqaUBKTNV-1">
          <mxGeometry x="360" y="950" width="440" height="150" as="geometry" />
        </mxCell>
        <mxCell id="9c52_iwOYSgnLn3xxYBy-71" value="START" style="rounded=1;whiteSpace=wrap;html=1;fontStyle=1" vertex="1" parent="WIyWlLk6GJQsqaUBKTNV-1">
          <mxGeometry x="375" y="960" width="80" height="30" as="geometry" />
        </mxCell>
        <mxCell id="9c52_iwOYSgnLn3xxYBy-74" value="" style="rounded=0;whiteSpace=wrap;html=1;" vertex="1" parent="WIyWlLk6GJQsqaUBKTNV-1">
          <mxGeometry x="375" y="1000" width="410" height="90" as="geometry" />
        </mxCell>
        <mxCell id="9c52_iwOYSgnLn3xxYBy-75" value="cd /home/pi/Desktop &amp;amp;&amp;amp; docker exec -it docker_container1 bash &amp;amp;&amp;amp; python3 main_brain.py --show" style="text;html=1;align=left;verticalAlign=top;whiteSpace=wrap;rounded=0;" vertex="1" parent="WIyWlLk6GJQsqaUBKTNV-1">
          <mxGeometry x="376" y="1000" width="410" height="90" as="geometry" />
        </mxCell>
        <mxCell id="9c52_iwOYSgnLn3xxYBy-80" value="" style="endArrow=none;html=1;rounded=0;entryX=1;entryY=0.5;entryDx=0;entryDy=0;exitX=0;exitY=0.5;exitDx=0;exitDy=0;" edge="1" parent="WIyWlLk6GJQsqaUBKTNV-1" source="9c52_iwOYSgnLn3xxYBy-67" target="9c52_iwOYSgnLn3xxYBy-67">
          <mxGeometry width="50" height="50" relative="1" as="geometry">
            <mxPoint x="60" y="1070" as="sourcePoint" />
            <mxPoint x="110" y="1020" as="targetPoint" />
          </mxGeometry>
        </mxCell>
        <mxCell id="9c52_iwOYSgnLn3xxYBy-83" value="WHEELS" style="rounded=1;whiteSpace=wrap;html=1;fontStyle=0;flipH=0;" vertex="1" parent="WIyWlLk6GJQsqaUBKTNV-1">
          <mxGeometry x="192" y="1060" width="59" height="30" as="geometry" />
        </mxCell>
        <mxCell id="9c52_iwOYSgnLn3xxYBy-84" value="GPS" style="rounded=1;whiteSpace=wrap;html=1;fontStyle=0;flipH=0;" vertex="1" parent="WIyWlLk6GJQsqaUBKTNV-1">
          <mxGeometry x="271" y="1060" width="59" height="30" as="geometry" />
        </mxCell>
        <mxCell id="9c52_iwOYSgnLn3xxYBy-85" value="IMU" style="rounded=1;whiteSpace=wrap;html=1;fontStyle=0;flipH=0;" vertex="1" parent="WIyWlLk6GJQsqaUBKTNV-1">
          <mxGeometry x="113" y="1060" width="59" height="30" as="geometry" />
        </mxCell>
        <mxCell id="9c52_iwOYSgnLn3xxYBy-86" value="TEST" style="rounded=1;whiteSpace=wrap;html=1;fontStyle=0;flipH=0;" vertex="1" parent="WIyWlLk6GJQsqaUBKTNV-1">
          <mxGeometry x="40" y="1060" width="59" height="30" as="geometry" />
        </mxCell>
        <mxCell id="9c52_iwOYSgnLn3xxYBy-88" value="TEST SCRIPTS" style="text;html=1;align=center;verticalAlign=middle;whiteSpace=wrap;rounded=0;fontFamily=Comic Sans MS;" vertex="1" parent="WIyWlLk6GJQsqaUBKTNV-1">
          <mxGeometry x="128" y="1030" width="114" height="30" as="geometry" />
        </mxCell>
        <mxCell id="9c52_iwOYSgnLn3xxYBy-93" style="edgeStyle=orthogonalEdgeStyle;rounded=0;orthogonalLoop=1;jettySize=auto;html=1;endSize=10;endArrow=block;endFill=0;fillColor=#e3c800;strokeColor=#000000;" edge="1" parent="WIyWlLk6GJQsqaUBKTNV-1" source="9c52_iwOYSgnLn3xxYBy-89" target="9c52_iwOYSgnLn3xxYBy-69">
          <mxGeometry relative="1" as="geometry" />
        </mxCell>
        <mxCell id="9c52_iwOYSgnLn3xxYBy-89" value="SSH COMMAND TO RUN SCRIPT AND TO STOP" style="text;html=1;align=center;verticalAlign=middle;whiteSpace=wrap;rounded=1;strokeColor=#B09500;fillColor=#FFB570;fontColor=#000000;" vertex="1" parent="WIyWlLk6GJQsqaUBKTNV-1">
          <mxGeometry x="-220" y="970" width="150" height="30" as="geometry" />
        </mxCell>
        <mxCell id="9c52_iwOYSgnLn3xxYBy-90" value="STOP" style="rounded=1;whiteSpace=wrap;html=1;fontStyle=1" vertex="1" parent="WIyWlLk6GJQsqaUBKTNV-1">
          <mxGeometry x="460" y="960" width="80" height="30" as="geometry" />
        </mxCell>
        <mxCell id="9c52_iwOYSgnLn3xxYBy-92" style="edgeStyle=orthogonalEdgeStyle;rounded=0;orthogonalLoop=1;jettySize=auto;html=1;endArrow=block;endFill=0;strokeWidth=1;endSize=10;fillColor=#e3c800;strokeColor=#000000;" edge="1" parent="WIyWlLk6GJQsqaUBKTNV-1" source="9c52_iwOYSgnLn3xxYBy-91" target="9c52_iwOYSgnLn3xxYBy-90">
          <mxGeometry relative="1" as="geometry" />
        </mxCell>
        <mxCell id="9c52_iwOYSgnLn3xxYBy-91" value="CUSTOM&amp;nbsp;&lt;div&gt;SSH COMMAND TO RUN SCRIPT AND TO STOP&lt;/div&gt;" style="text;html=1;align=center;verticalAlign=middle;whiteSpace=wrap;rounded=1;strokeColor=#B09500;fillColor=#FFB570;fontColor=#000000;" vertex="1" parent="WIyWlLk6GJQsqaUBKTNV-1">
          <mxGeometry x="890" y="950" width="150" height="50" as="geometry" />
        </mxCell>
        <mxCell id="9c52_iwOYSgnLn3xxYBy-94" style="edgeStyle=orthogonalEdgeStyle;rounded=0;orthogonalLoop=1;jettySize=auto;html=1;endSize=10;endArrow=block;endFill=0;fillColor=#e3c800;strokeColor=#000000;entryX=0;entryY=0.25;entryDx=0;entryDy=0;" edge="1" parent="WIyWlLk6GJQsqaUBKTNV-1" source="9c52_iwOYSgnLn3xxYBy-95" target="9c52_iwOYSgnLn3xxYBy-38">
          <mxGeometry relative="1" as="geometry">
            <mxPoint x="-70" y="610" as="targetPoint" />
          </mxGeometry>
        </mxCell>
        <mxCell id="9c52_iwOYSgnLn3xxYBy-95" value="METRICS&amp;nbsp;&lt;span style=&quot;background-color: transparent; color: light-dark(rgb(0, 0, 0), rgb(237, 237, 237));&quot;&gt;FROM JSON&lt;/span&gt;" style="text;html=1;align=center;verticalAlign=middle;whiteSpace=wrap;rounded=1;strokeColor=#B09500;fillColor=#FFFF33;fontColor=#000000;" vertex="1" parent="WIyWlLk6GJQsqaUBKTNV-1">
          <mxGeometry x="-220" y="710" width="150" height="30" as="geometry" />
        </mxCell>
        <mxCell id="9c52_iwOYSgnLn3xxYBy-102" value="423" style="text;html=1;align=left;verticalAlign=middle;whiteSpace=wrap;rounded=0;fontSize=9;" vertex="1" parent="WIyWlLk6GJQsqaUBKTNV-1">
          <mxGeometry x="160" y="700" width="120" height="20" as="geometry" />
        </mxCell>
        <mxCell id="9c52_iwOYSgnLn3xxYBy-103" value="INTERSECTION_NAVIGATION" style="text;html=1;align=left;verticalAlign=middle;whiteSpace=wrap;rounded=0;fontSize=9;" vertex="1" parent="WIyWlLk6GJQsqaUBKTNV-1">
          <mxGeometry x="160" y="720" width="170" height="20" as="geometry" />
        </mxCell>
        <mxCell id="9c52_iwOYSgnLn3xxYBy-104" value="INTERSECTION_TRAFFIC_LIGHT_EVENT" style="text;html=1;align=left;verticalAlign=middle;whiteSpace=wrap;rounded=0;fontSize=9;" vertex="1" parent="WIyWlLk6GJQsqaUBKTNV-1">
          <mxGeometry x="160" y="740" width="170" height="20" as="geometry" />
        </mxCell>
        <mxCell id="9c52_iwOYSgnLn3xxYBy-105" value="HIGHWAY_ENTRANCE_EVENT" style="text;html=1;align=left;verticalAlign=middle;whiteSpace=wrap;rounded=0;fontSize=9;" vertex="1" parent="WIyWlLk6GJQsqaUBKTNV-1">
          <mxGeometry x="160" y="760" width="120" height="20" as="geometry" />
        </mxCell>
        <mxCell id="9c52_iwOYSgnLn3xxYBy-110" style="edgeStyle=orthogonalEdgeStyle;rounded=0;orthogonalLoop=1;jettySize=auto;html=1;endSize=10;endArrow=block;endFill=0;fillColor=#e3c800;strokeColor=#000000;entryX=0;entryY=0.25;entryDx=0;entryDy=0;" edge="1" parent="WIyWlLk6GJQsqaUBKTNV-1" source="9c52_iwOYSgnLn3xxYBy-111">
          <mxGeometry relative="1" as="geometry">
            <mxPoint x="60" y="295" as="targetPoint" />
          </mxGeometry>
        </mxCell>
        <mxCell id="9c52_iwOYSgnLn3xxYBy-111" value="DUPLICATE THE SOCKET" style="text;html=1;align=center;verticalAlign=middle;whiteSpace=wrap;rounded=1;strokeColor=#666666;fillColor=#f5f5f5;fontColor=#333333;" vertex="1" parent="WIyWlLk6GJQsqaUBKTNV-1">
          <mxGeometry x="-240" y="280" width="150" height="30" as="geometry" />
        </mxCell>
        <mxCell id="9c52_iwOYSgnLn3xxYBy-112" value="" style="rounded=0;whiteSpace=wrap;html=1;" vertex="1" parent="WIyWlLk6GJQsqaUBKTNV-1">
          <mxGeometry x="630" y="700" width="170" height="230" as="geometry" />
        </mxCell>
        <mxCell id="9c52_iwOYSgnLn3xxYBy-113" value="SPEED" style="text;html=1;align=left;verticalAlign=middle;whiteSpace=wrap;rounded=0;fontStyle=1" vertex="1" parent="WIyWlLk6GJQsqaUBKTNV-1">
          <mxGeometry x="640" y="710" width="60" height="20" as="geometry" />
        </mxCell>
        <mxCell id="9c52_iwOYSgnLn3xxYBy-114" value="STEERING" style="text;html=1;align=left;verticalAlign=middle;whiteSpace=wrap;rounded=0;fontStyle=1" vertex="1" parent="WIyWlLk6GJQsqaUBKTNV-1">
          <mxGeometry x="640" y="736" width="60" height="20" as="geometry" />
        </mxCell>
        <mxCell id="9c52_iwOYSgnLn3xxYBy-115" value="DISTANCE" style="text;html=1;align=left;verticalAlign=middle;whiteSpace=wrap;rounded=0;fontStyle=1" vertex="1" parent="WIyWlLk6GJQsqaUBKTNV-1">
          <mxGeometry x="640" y="763" width="60" height="20" as="geometry" />
        </mxCell>
        <mxCell id="9c52_iwOYSgnLn3xxYBy-116" value="SONAR L" style="text;html=1;align=left;verticalAlign=middle;whiteSpace=wrap;rounded=0;fontStyle=1" vertex="1" parent="WIyWlLk6GJQsqaUBKTNV-1">
          <mxGeometry x="640" y="789" width="60" height="20" as="geometry" />
        </mxCell>
        <mxCell id="9c52_iwOYSgnLn3xxYBy-117" value="SONAR R" style="text;html=1;align=left;verticalAlign=middle;whiteSpace=wrap;rounded=0;fontStyle=1" vertex="1" parent="WIyWlLk6GJQsqaUBKTNV-1">
          <mxGeometry x="640" y="816" width="60" height="20" as="geometry" />
        </mxCell>
        <mxCell id="9c52_iwOYSgnLn3xxYBy-118" value="SONAR F" style="text;html=1;align=left;verticalAlign=middle;whiteSpace=wrap;rounded=0;fontStyle=1" vertex="1" parent="WIyWlLk6GJQsqaUBKTNV-1">
          <mxGeometry x="640" y="842" width="60" height="20" as="geometry" />
        </mxCell>
        <mxCell id="9c52_iwOYSgnLn3xxYBy-119" value="YAW" style="text;html=1;align=left;verticalAlign=middle;whiteSpace=wrap;rounded=0;fontStyle=1" vertex="1" parent="WIyWlLk6GJQsqaUBKTNV-1">
          <mxGeometry x="640" y="869" width="60" height="20" as="geometry" />
        </mxCell>
        <mxCell id="9c52_iwOYSgnLn3xxYBy-120" value="HEADING" style="text;html=1;align=left;verticalAlign=middle;whiteSpace=wrap;rounded=0;fontStyle=1" vertex="1" parent="WIyWlLk6GJQsqaUBKTNV-1">
          <mxGeometry x="640" y="895" width="60" height="20" as="geometry" />
        </mxCell>
        <mxCell id="9c52_iwOYSgnLn3xxYBy-121" value=":" style="text;html=1;align=left;verticalAlign=middle;whiteSpace=wrap;rounded=0;fontStyle=1" vertex="1" parent="WIyWlLk6GJQsqaUBKTNV-1">
          <mxGeometry x="705" y="710" width="10" height="20" as="geometry" />
        </mxCell>
        <mxCell id="9c52_iwOYSgnLn3xxYBy-122" value=":" style="text;html=1;align=left;verticalAlign=middle;whiteSpace=wrap;rounded=0;fontStyle=1" vertex="1" parent="WIyWlLk6GJQsqaUBKTNV-1">
          <mxGeometry x="705" y="736" width="10" height="20" as="geometry" />
        </mxCell>
        <mxCell id="9c52_iwOYSgnLn3xxYBy-123" value=":" style="text;html=1;align=left;verticalAlign=middle;whiteSpace=wrap;rounded=0;fontStyle=1" vertex="1" parent="WIyWlLk6GJQsqaUBKTNV-1">
          <mxGeometry x="705" y="763" width="10" height="20" as="geometry" />
        </mxCell>
        <mxCell id="9c52_iwOYSgnLn3xxYBy-124" value=":" style="text;html=1;align=left;verticalAlign=middle;whiteSpace=wrap;rounded=0;fontStyle=1" vertex="1" parent="WIyWlLk6GJQsqaUBKTNV-1">
          <mxGeometry x="705" y="789" width="10" height="20" as="geometry" />
        </mxCell>
        <mxCell id="9c52_iwOYSgnLn3xxYBy-125" value=":" style="text;html=1;align=left;verticalAlign=middle;whiteSpace=wrap;rounded=0;fontStyle=1" vertex="1" parent="WIyWlLk6GJQsqaUBKTNV-1">
          <mxGeometry x="705" y="816" width="10" height="20" as="geometry" />
        </mxCell>
        <mxCell id="9c52_iwOYSgnLn3xxYBy-126" value=":" style="text;html=1;align=left;verticalAlign=middle;whiteSpace=wrap;rounded=0;fontStyle=1" vertex="1" parent="WIyWlLk6GJQsqaUBKTNV-1">
          <mxGeometry x="705" y="842" width="10" height="20" as="geometry" />
        </mxCell>
        <mxCell id="9c52_iwOYSgnLn3xxYBy-127" value=":" style="text;html=1;align=left;verticalAlign=middle;whiteSpace=wrap;rounded=0;fontStyle=1" vertex="1" parent="WIyWlLk6GJQsqaUBKTNV-1">
          <mxGeometry x="705" y="869" width="10" height="20" as="geometry" />
        </mxCell>
        <mxCell id="9c52_iwOYSgnLn3xxYBy-128" value=":" style="text;html=1;align=left;verticalAlign=middle;whiteSpace=wrap;rounded=0;fontStyle=1" vertex="1" parent="WIyWlLk6GJQsqaUBKTNV-1">
          <mxGeometry x="705" y="895" width="10" height="20" as="geometry" />
        </mxCell>
        <mxCell id="9c52_iwOYSgnLn3xxYBy-130" value="2.70" style="text;html=1;align=left;verticalAlign=middle;whiteSpace=wrap;rounded=0;fontStyle=0" vertex="1" parent="WIyWlLk6GJQsqaUBKTNV-1">
          <mxGeometry x="720" y="710" width="40" height="20" as="geometry" />
        </mxCell>
        <mxCell id="9c52_iwOYSgnLn3xxYBy-131" value="13.20" style="text;html=1;align=left;verticalAlign=middle;whiteSpace=wrap;rounded=0;fontStyle=0" vertex="1" parent="WIyWlLk6GJQsqaUBKTNV-1">
          <mxGeometry x="720" y="736" width="40" height="20" as="geometry" />
        </mxCell>
        <mxCell id="9c52_iwOYSgnLn3xxYBy-132" value="1.59" style="text;html=1;align=left;verticalAlign=middle;whiteSpace=wrap;rounded=0;fontStyle=0" vertex="1" parent="WIyWlLk6GJQsqaUBKTNV-1">
          <mxGeometry x="720" y="763" width="40" height="20" as="geometry" />
        </mxCell>
        <mxCell id="9c52_iwOYSgnLn3xxYBy-133" value="8.56" style="text;html=1;align=left;verticalAlign=middle;whiteSpace=wrap;rounded=0;fontStyle=0" vertex="1" parent="WIyWlLk6GJQsqaUBKTNV-1">
          <mxGeometry x="720" y="789" width="40" height="20" as="geometry" />
        </mxCell>
        <mxCell id="9c52_iwOYSgnLn3xxYBy-134" value="30.03" style="text;html=1;align=left;verticalAlign=middle;whiteSpace=wrap;rounded=0;fontStyle=0" vertex="1" parent="WIyWlLk6GJQsqaUBKTNV-1">
          <mxGeometry x="720" y="816" width="40" height="20" as="geometry" />
        </mxCell>
        <mxCell id="9c52_iwOYSgnLn3xxYBy-135" value="23.40" style="text;html=1;align=left;verticalAlign=middle;whiteSpace=wrap;rounded=0;fontStyle=0" vertex="1" parent="WIyWlLk6GJQsqaUBKTNV-1">
          <mxGeometry x="720" y="842" width="40" height="20" as="geometry" />
        </mxCell>
        <mxCell id="9c52_iwOYSgnLn3xxYBy-136" value="3.00" style="text;html=1;align=left;verticalAlign=middle;whiteSpace=wrap;rounded=0;fontStyle=0" vertex="1" parent="WIyWlLk6GJQsqaUBKTNV-1">
          <mxGeometry x="720" y="869" width="40" height="20" as="geometry" />
        </mxCell>
        <mxCell id="9c52_iwOYSgnLn3xxYBy-137" value="NORTH" style="text;html=1;align=left;verticalAlign=middle;whiteSpace=wrap;rounded=0;fontStyle=0" vertex="1" parent="WIyWlLk6GJQsqaUBKTNV-1">
          <mxGeometry x="720" y="895" width="40" height="20" as="geometry" />
        </mxCell>
        <mxCell id="9c52_iwOYSgnLn3xxYBy-146" value="m/s" style="text;html=1;align=left;verticalAlign=middle;whiteSpace=wrap;rounded=0;fontStyle=1" vertex="1" parent="WIyWlLk6GJQsqaUBKTNV-1">
          <mxGeometry x="760" y="710.5" width="40" height="20" as="geometry" />
        </mxCell>
        <mxCell id="9c52_iwOYSgnLn3xxYBy-147" value="°" style="text;html=1;align=left;verticalAlign=middle;whiteSpace=wrap;rounded=0;fontStyle=1" vertex="1" parent="WIyWlLk6GJQsqaUBKTNV-1">
          <mxGeometry x="760" y="736.5" width="40" height="20" as="geometry" />
        </mxCell>
        <mxCell id="9c52_iwOYSgnLn3xxYBy-148" value="m" style="text;html=1;align=left;verticalAlign=middle;whiteSpace=wrap;rounded=0;fontStyle=1" vertex="1" parent="WIyWlLk6GJQsqaUBKTNV-1">
          <mxGeometry x="760" y="763.5" width="40" height="20" as="geometry" />
        </mxCell>
        <mxCell id="9c52_iwOYSgnLn3xxYBy-149" value="cm" style="text;html=1;align=left;verticalAlign=middle;whiteSpace=wrap;rounded=0;fontStyle=1" vertex="1" parent="WIyWlLk6GJQsqaUBKTNV-1">
          <mxGeometry x="760" y="789.5" width="40" height="20" as="geometry" />
        </mxCell>
        <mxCell id="9c52_iwOYSgnLn3xxYBy-150" value="cm" style="text;html=1;align=left;verticalAlign=middle;whiteSpace=wrap;rounded=0;fontStyle=1" vertex="1" parent="WIyWlLk6GJQsqaUBKTNV-1">
          <mxGeometry x="760" y="816.5" width="40" height="20" as="geometry" />
        </mxCell>
        <mxCell id="9c52_iwOYSgnLn3xxYBy-151" value="cm" style="text;html=1;align=left;verticalAlign=middle;whiteSpace=wrap;rounded=0;fontStyle=1" vertex="1" parent="WIyWlLk6GJQsqaUBKTNV-1">
          <mxGeometry x="760" y="842.5" width="40" height="20" as="geometry" />
        </mxCell>
        <mxCell id="9c52_iwOYSgnLn3xxYBy-152" value="°" style="text;html=1;align=left;verticalAlign=middle;whiteSpace=wrap;rounded=0;fontStyle=1" vertex="1" parent="WIyWlLk6GJQsqaUBKTNV-1">
          <mxGeometry x="760" y="869.5" width="40" height="20" as="geometry" />
        </mxCell>
        <mxCell id="9c52_iwOYSgnLn3xxYBy-156" style="edgeStyle=orthogonalEdgeStyle;rounded=0;orthogonalLoop=1;jettySize=auto;html=1;endSize=10;endArrow=block;endFill=0;" edge="1" parent="WIyWlLk6GJQsqaUBKTNV-1" source="9c52_iwOYSgnLn3xxYBy-155" target="9c52_iwOYSgnLn3xxYBy-112">
          <mxGeometry relative="1" as="geometry" />
        </mxCell>
        <mxCell id="9c52_iwOYSgnLn3xxYBy-155" value="METRICS&amp;nbsp;&lt;span style=&quot;background-color: transparent; color: light-dark(rgb(0, 0, 0), rgb(237, 237, 237));&quot;&gt;FROM JSON&lt;/span&gt;" style="text;html=1;align=center;verticalAlign=middle;whiteSpace=wrap;rounded=1;strokeColor=#B09500;fillColor=#FFFF33;fontColor=#000000;" vertex="1" parent="WIyWlLk6GJQsqaUBKTNV-1">
          <mxGeometry x="890" y="800" width="150" height="30" as="geometry" />
        </mxCell>
        <mxCell id="9c52_iwOYSgnLn3xxYBy-157" value="CAMERA FEED" style="rounded=1;whiteSpace=wrap;html=1;arcSize=3;" vertex="1" parent="WIyWlLk6GJQsqaUBKTNV-1">
          <mxGeometry x="365" y="705" width="250" height="220" as="geometry" />
        </mxCell>
        <mxCell id="9c52_iwOYSgnLn3xxYBy-162" value="" style="rounded=0;whiteSpace=wrap;html=1;" vertex="1" parent="WIyWlLk6GJQsqaUBKTNV-1">
          <mxGeometry x="10" y="1240" width="630" height="430" as="geometry" />
        </mxCell>
        <mxCell id="9c52_iwOYSgnLn3xxYBy-163" value="&lt;div&gt;&lt;font face=&quot;Lucida Console&quot;&gt;{&lt;/font&gt;&lt;/div&gt;&lt;div&gt;&lt;font face=&quot;Lucida Console&quot;&gt;&amp;nbsp; &quot;CHECKPOINT&quot;:&amp;nbsp;&lt;/font&gt;&lt;span style=&quot;color: rgb(255, 0, 255); font-family: &amp;quot;Lucida Console&amp;quot;;&quot;&gt;192&lt;/span&gt;&lt;font face=&quot;Lucida Console&quot;&gt;,&lt;/font&gt;&lt;/div&gt;&lt;div&gt;&lt;font face=&quot;Lucida Console&quot;&gt;&amp;nbsp; &quot;STATE&quot;: &lt;font style=&quot;color: rgb(0, 204, 0);&quot;&gt;&quot;APPROACHING_STOPLINE&quot;&lt;/font&gt;,&lt;/font&gt;&lt;/div&gt;&lt;div&gt;&lt;font face=&quot;Lucida Console&quot;&gt;&amp;nbsp; &quot;PREV_EVENT&quot;: &lt;font style=&quot;color: rgb(0, 204, 0);&quot;&gt;&quot;CROSSWALK_EVENT&quot;&lt;/font&gt;,&lt;/font&gt;&lt;/div&gt;&lt;div&gt;&lt;font face=&quot;Lucida Console&quot;&gt;&amp;nbsp; &quot;UPCOMING_EVENT&quot;: &lt;font style=&quot;color: rgb(0, 204, 0);&quot;&gt;&quot;INTERSECTION_STOP_EVENT&quot;&lt;/font&gt;,&lt;/font&gt;&lt;/div&gt;&lt;div&gt;&lt;font face=&quot;Lucida Console&quot;&gt;&amp;nbsp; &quot;ROUTINES&quot;: [&lt;/font&gt;&lt;/div&gt;&lt;div&gt;&lt;font face=&quot;Lucida Console&quot;&gt;&amp;nbsp; &amp;nbsp; &lt;font style=&quot;color: rgb(0, 204, 0);&quot;&gt;&quot;FOLLOW_LANE&quot;&lt;/font&gt;,&lt;/font&gt;&lt;/div&gt;&lt;div&gt;&lt;font face=&quot;Lucida Console&quot;&gt;&amp;nbsp; &amp;nbsp;&lt;font style=&quot;color: rgb(0, 204, 0);&quot;&gt; &quot;DETECT_STOPLINE&quot;&lt;/font&gt;,&lt;/font&gt;&lt;/div&gt;&lt;div&gt;&lt;font face=&quot;Lucida Console&quot;&gt;&amp;nbsp; &amp;nbsp; &lt;font style=&quot;color: rgb(0, 204, 0);&quot;&gt;&quot;SLOW_DOWN&quot;&lt;/font&gt;&lt;/font&gt;&lt;/div&gt;&lt;div&gt;&lt;font face=&quot;Lucida Console&quot;&gt;&amp;nbsp; ],&lt;/font&gt;&lt;/div&gt;&lt;div&gt;&lt;font face=&quot;Lucida Console&quot;&gt;&amp;nbsp; &quot;CONDITIONS&quot;: {&lt;/font&gt;&lt;/div&gt;&lt;div&gt;&lt;font face=&quot;Lucida Console&quot;&gt;&amp;nbsp; &amp;nbsp; &quot;TRUST_GPS&quot;: &lt;font style=&quot;color: rgb(0, 204, 0);&quot;&gt;false&lt;/font&gt;,&lt;/font&gt;&lt;/div&gt;&lt;div&gt;&lt;font face=&quot;Lucida Console&quot;&gt;&amp;nbsp; &amp;nbsp; &quot;CAR_ON_PATH&quot;: &lt;font style=&quot;color: rgb(0, 204, 0);&quot;&gt;true&lt;/font&gt;&lt;/font&gt;&lt;/div&gt;&lt;div&gt;&lt;font face=&quot;Lucida Console&quot;&gt;&amp;nbsp; },&lt;/font&gt;&lt;/div&gt;&lt;div&gt;&lt;font face=&quot;Lucida Console&quot;&gt;&amp;nbsp; &quot;SPEED&quot;: &lt;font style=&quot;color: rgb(255, 0, 255);&quot;&gt;1.00&lt;/font&gt;,&lt;br&gt;&amp;nbsp; &quot;STEER&quot;:&amp;nbsp;&lt;/font&gt;&lt;span style=&quot;font-family: &amp;quot;Lucida Console&amp;quot;; background-color: transparent;&quot;&gt;&lt;font style=&quot;color: light-dark(rgb(255, 0, 255), rgb(255, 255, 255));&quot;&gt;1.00&lt;/font&gt;&lt;/span&gt;&lt;span style=&quot;font-family: &amp;quot;Lucida Console&amp;quot;; background-color: transparent; color: light-dark(rgb(0, 0, 0), rgb(255, 255, 255));&quot;&gt;,&lt;/span&gt;&lt;/div&gt;&lt;div&gt;&lt;font face=&quot;Lucida Console&quot;&gt;&amp;nbsp; &quot;DISTANCE&quot;:&amp;nbsp;&lt;/font&gt;&lt;span style=&quot;font-family: &amp;quot;Lucida Console&amp;quot;; background-color: transparent;&quot;&gt;&lt;font style=&quot;color: light-dark(rgb(255, 0, 255), rgb(255, 255, 255));&quot;&gt;1.00&lt;/font&gt;&lt;/span&gt;&lt;span style=&quot;font-family: &amp;quot;Lucida Console&amp;quot;; background-color: transparent; color: light-dark(rgb(0, 0, 0), rgb(255, 255, 255));&quot;&gt;,&lt;/span&gt;&lt;/div&gt;&lt;div&gt;&lt;font face=&quot;Lucida Console&quot;&gt;&amp;nbsp; &quot;SONAR_L&quot;:&amp;nbsp;&lt;/font&gt;&lt;span style=&quot;color: rgb(255, 0, 255); font-family: &amp;quot;Lucida Console&amp;quot;;&quot;&gt;1.00&lt;/span&gt;&lt;span style=&quot;font-family: &amp;quot;Lucida Console&amp;quot;;&quot;&gt;,&lt;/span&gt;&lt;font face=&quot;Lucida Console&quot;&gt;&lt;br&gt;&amp;nbsp;&amp;nbsp;&lt;/font&gt;&lt;span style=&quot;font-family: &amp;quot;Lucida Console&amp;quot;; background-color: transparent; color: light-dark(rgb(0, 0, 0), rgb(255, 255, 255));&quot;&gt;&quot;SONAR_R&quot;:&amp;nbsp;&lt;/span&gt;&lt;span style=&quot;color: rgb(255, 0, 255); font-family: &amp;quot;Lucida Console&amp;quot;;&quot;&gt;1.00&lt;/span&gt;&lt;span style=&quot;font-family: &amp;quot;Lucida Console&amp;quot;; background-color: transparent; color: light-dark(rgb(0, 0, 0), rgb(255, 255, 255));&quot;&gt;,&lt;/span&gt;&lt;/div&gt;&lt;div&gt;&lt;span style=&quot;font-family: &amp;quot;Lucida Console&amp;quot;; background-color: transparent; color: light-dark(rgb(0, 0, 0), rgb(255, 255, 255));&quot;&gt;&amp;nbsp; &quot;SONAR_C&quot;:&amp;nbsp;&lt;/span&gt;&lt;span style=&quot;color: rgb(255, 0, 255); font-family: &amp;quot;Lucida Console&amp;quot;;&quot;&gt;1.00&lt;/span&gt;&lt;span style=&quot;font-family: &amp;quot;Lucida Console&amp;quot;; background-color: transparent; color: light-dark(rgb(0, 0, 0), rgb(255, 255, 255));&quot;&gt;,&lt;/span&gt;&lt;/div&gt;&lt;div&gt;&lt;font face=&quot;Lucida Console&quot;&gt;&amp;nbsp; &quot;YAW&quot;:&amp;nbsp;&lt;/font&gt;&lt;span style=&quot;color: rgb(255, 0, 255); font-family: &amp;quot;Lucida Console&amp;quot;;&quot;&gt;1.00&lt;/span&gt;&lt;span style=&quot;font-family: &amp;quot;Lucida Console&amp;quot;; background-color: transparent; color: light-dark(rgb(0, 0, 0), rgb(255, 255, 255));&quot;&gt;,&lt;/span&gt;&lt;/div&gt;&lt;div&gt;&lt;font face=&quot;Lucida Console&quot;&gt;&amp;nbsp; &quot;HEADING&quot;:&amp;nbsp;&lt;/font&gt;&lt;span style=&quot;color: rgb(255, 0, 255); font-family: &amp;quot;Lucida Console&amp;quot;; background-color: transparent;&quot;&gt;&lt;span style=&quot;color: rgb(0, 204, 0);&quot;&gt;&quot;NORTH&quot;&lt;/span&gt;&lt;/span&gt;&lt;/div&gt;&lt;div&gt;&lt;font face=&quot;Lucida Console&quot;&gt;}&lt;/font&gt;&lt;/div&gt;" style="text;html=1;align=left;verticalAlign=middle;whiteSpace=wrap;rounded=0;" vertex="1" parent="WIyWlLk6GJQsqaUBKTNV-1">
          <mxGeometry x="26" y="1280" width="350" height="370" as="geometry" />
        </mxCell>
        <mxCell id="9c52_iwOYSgnLn3xxYBy-164" value="&lt;font style=&quot;font-size: 14px;&quot;&gt;Example JSON Message&lt;/font&gt;" style="text;html=1;align=center;verticalAlign=middle;whiteSpace=wrap;rounded=0;fontFamily=Comic Sans MS;fontStyle=1" vertex="1" parent="WIyWlLk6GJQsqaUBKTNV-1">
          <mxGeometry x="235.5" y="1250" width="179" height="30" as="geometry" />
        </mxCell>
        <mxCell id="9c52_iwOYSgnLn3xxYBy-165" value="Type:&amp;nbsp;&lt;span style=&quot;background-color: rgb(204, 204, 204);&quot;&gt;list&lt;/span&gt;&amp;nbsp;of&amp;nbsp;&lt;span style=&quot;background-color: rgb(204, 204, 204);&quot;&gt;string&lt;/span&gt;" style="text;html=1;align=center;verticalAlign=middle;whiteSpace=wrap;rounded=0;strokeColor=default;" vertex="1" parent="WIyWlLk6GJQsqaUBKTNV-1">
          <mxGeometry x="455" y="1357.5" width="156" height="30" as="geometry" />
        </mxCell>
        <mxCell id="9c52_iwOYSgnLn3xxYBy-166" value="Type: &lt;span style=&quot;background-color: rgb(204, 204, 204);&quot;&gt;int&lt;/span&gt;" style="text;html=1;align=center;verticalAlign=middle;whiteSpace=wrap;rounded=0;strokeColor=default;" vertex="1" parent="WIyWlLk6GJQsqaUBKTNV-1">
          <mxGeometry x="455" y="1293" width="156" height="30" as="geometry" />
        </mxCell>
        <mxCell id="9c52_iwOYSgnLn3xxYBy-167" value="Type: &lt;span style=&quot;background-color: rgb(204, 204, 204);&quot;&gt;dict&lt;/span&gt; of &lt;span style=&quot;background-color: rgb(204, 204, 204);&quot;&gt;string: boolean&lt;/span&gt;" style="text;html=1;align=center;verticalAlign=middle;whiteSpace=wrap;rounded=0;strokeColor=default;" vertex="1" parent="WIyWlLk6GJQsqaUBKTNV-1">
          <mxGeometry x="455" y="1450" width="156" height="30" as="geometry" />
        </mxCell>
        <mxCell id="9c52_iwOYSgnLn3xxYBy-168" value="Type: &lt;span style=&quot;background-color: rgb(204, 204, 204);&quot;&gt;float&lt;/span&gt;" style="text;html=1;align=center;verticalAlign=middle;whiteSpace=wrap;rounded=0;strokeColor=default;" vertex="1" parent="WIyWlLk6GJQsqaUBKTNV-1">
          <mxGeometry x="455" y="1542" width="156" height="30" as="geometry" />
        </mxCell>
        <mxCell id="9c52_iwOYSgnLn3xxYBy-170" value="" style="shape=curlyBracket;whiteSpace=wrap;html=1;rounded=1;flipH=1;labelPosition=right;verticalLabelPosition=middle;align=left;verticalAlign=middle;" vertex="1" parent="WIyWlLk6GJQsqaUBKTNV-1">
          <mxGeometry x="205.5" y="1507" width="20" height="100" as="geometry" />
        </mxCell>
        <mxCell id="9c52_iwOYSgnLn3xxYBy-171" style="edgeStyle=orthogonalEdgeStyle;rounded=0;orthogonalLoop=1;jettySize=auto;html=1;exitX=0.1;exitY=0.5;exitDx=0;exitDy=0;exitPerimeter=0;" edge="1" parent="WIyWlLk6GJQsqaUBKTNV-1" source="9c52_iwOYSgnLn3xxYBy-170" target="9c52_iwOYSgnLn3xxYBy-168">
          <mxGeometry relative="1" as="geometry" />
        </mxCell>
        <mxCell id="9c52_iwOYSgnLn3xxYBy-176" style="edgeStyle=orthogonalEdgeStyle;rounded=0;orthogonalLoop=1;jettySize=auto;html=1;" edge="1" parent="WIyWlLk6GJQsqaUBKTNV-1" source="9c52_iwOYSgnLn3xxYBy-172" target="9c52_iwOYSgnLn3xxYBy-167">
          <mxGeometry relative="1" as="geometry" />
        </mxCell>
        <mxCell id="9c52_iwOYSgnLn3xxYBy-172" value="" style="shape=curlyBracket;whiteSpace=wrap;html=1;rounded=1;flipH=1;labelPosition=right;verticalLabelPosition=middle;align=left;verticalAlign=middle;" vertex="1" parent="WIyWlLk6GJQsqaUBKTNV-1">
          <mxGeometry x="210" y="1440" width="20" height="50" as="geometry" />
        </mxCell>
        <mxCell id="9c52_iwOYSgnLn3xxYBy-178" style="edgeStyle=orthogonalEdgeStyle;rounded=0;orthogonalLoop=1;jettySize=auto;html=1;entryX=0;entryY=0.5;entryDx=0;entryDy=0;" edge="1" parent="WIyWlLk6GJQsqaUBKTNV-1" source="9c52_iwOYSgnLn3xxYBy-177" target="9c52_iwOYSgnLn3xxYBy-165">
          <mxGeometry relative="1" as="geometry" />
        </mxCell>
        <mxCell id="9c52_iwOYSgnLn3xxYBy-177" value="" style="shape=curlyBracket;whiteSpace=wrap;html=1;rounded=1;flipH=1;labelPosition=right;verticalLabelPosition=middle;align=left;verticalAlign=middle;" vertex="1" parent="WIyWlLk6GJQsqaUBKTNV-1">
          <mxGeometry x="365" y="1315" width="20" height="115" as="geometry" />
        </mxCell>
        <mxCell id="9c52_iwOYSgnLn3xxYBy-179" value="" style="endArrow=classic;html=1;rounded=0;" edge="1" parent="WIyWlLk6GJQsqaUBKTNV-1">
          <mxGeometry width="50" height="50" relative="1" as="geometry">
            <mxPoint x="175" y="1307.8" as="sourcePoint" />
            <mxPoint x="455" y="1307.8" as="targetPoint" />
          </mxGeometry>
        </mxCell>
        <mxCell id="9c52_iwOYSgnLn3xxYBy-182" value="" style="edgeStyle=orthogonalEdgeStyle;rounded=0;orthogonalLoop=1;jettySize=auto;html=1;" edge="1" parent="WIyWlLk6GJQsqaUBKTNV-1" source="9c52_iwOYSgnLn3xxYBy-180" target="9c52_iwOYSgnLn3xxYBy-181">
          <mxGeometry relative="1" as="geometry" />
        </mxCell>
        <mxCell id="9c52_iwOYSgnLn3xxYBy-180" value="NOTE&lt;br&gt;In case of NULL don t update&amp;nbsp;" style="shape=process;whiteSpace=wrap;html=1;backgroundOutline=1;fillColor=#fff2cc;strokeColor=#d6b656;" vertex="1" parent="WIyWlLk6GJQsqaUBKTNV-1">
          <mxGeometry x="-200" y="1537" width="120" height="60" as="geometry" />
        </mxCell>
        <mxCell id="9c52_iwOYSgnLn3xxYBy-181" value="" style="shape=curlyBracket;whiteSpace=wrap;html=1;rounded=1;labelPosition=left;verticalLabelPosition=middle;align=right;verticalAlign=middle;" vertex="1" parent="WIyWlLk6GJQsqaUBKTNV-1">
          <mxGeometry x="-50" y="1507" width="20" height="120" as="geometry" />
        </mxCell>
        <mxCell id="9c52_iwOYSgnLn3xxYBy-183" value="" style="edgeStyle=orthogonalEdgeStyle;rounded=0;orthogonalLoop=1;jettySize=auto;html=1;" edge="1" parent="WIyWlLk6GJQsqaUBKTNV-1" source="9c52_iwOYSgnLn3xxYBy-184" target="9c52_iwOYSgnLn3xxYBy-185">
          <mxGeometry relative="1" as="geometry" />
        </mxCell>
        <mxCell id="9c52_iwOYSgnLn3xxYBy-184" value="NOTE&lt;br&gt;In case of NULL use empty string &quot; &quot;&amp;nbsp;" style="shape=process;whiteSpace=wrap;html=1;backgroundOutline=1;fillColor=#fff2cc;strokeColor=#d6b656;" vertex="1" parent="WIyWlLk6GJQsqaUBKTNV-1">
          <mxGeometry x="-205" y="1361.5" width="120" height="60" as="geometry" />
        </mxCell>
        <mxCell id="9c52_iwOYSgnLn3xxYBy-185" value="" style="shape=curlyBracket;whiteSpace=wrap;html=1;rounded=1;labelPosition=left;verticalLabelPosition=middle;align=right;verticalAlign=middle;" vertex="1" parent="WIyWlLk6GJQsqaUBKTNV-1">
          <mxGeometry x="-50" y="1303" width="20" height="177" as="geometry" />
        </mxCell>
        <mxCell id="9c52_iwOYSgnLn3xxYBy-186" value="NOTE&lt;div&gt;camera frame size w:320 h:240&lt;br&gt;&lt;/div&gt;" style="shape=process;whiteSpace=wrap;html=1;backgroundOutline=1;fillColor=#fff2cc;strokeColor=#d6b656;" vertex="1" parent="WIyWlLk6GJQsqaUBKTNV-1">
          <mxGeometry x="890" y="580" width="120" height="60" as="geometry" />
        </mxCell>
        <mxCell id="9c52_iwOYSgnLn3xxYBy-187" style="edgeStyle=orthogonalEdgeStyle;rounded=0;orthogonalLoop=1;jettySize=auto;html=1;entryX=0.864;entryY=0.014;entryDx=0;entryDy=0;entryPerimeter=0;" edge="1" parent="WIyWlLk6GJQsqaUBKTNV-1" source="9c52_iwOYSgnLn3xxYBy-186" target="9c52_iwOYSgnLn3xxYBy-66">
          <mxGeometry relative="1" as="geometry" />
        </mxCell>
        <mxCell id="9c52_iwOYSgnLn3xxYBy-193" value="NOTE&lt;div&gt;&lt;br&gt;&lt;div&gt;Both cam sockets receive a 320x240 frame.&amp;nbsp;&lt;/div&gt;&lt;div&gt;&lt;br&gt;&lt;/div&gt;&lt;div&gt;In the future the Dashboard can receive the full resolution&lt;/div&gt;&lt;div&gt;(4608x2592) because of the duplicate socket&lt;/div&gt;&lt;/div&gt;" style="shape=process;whiteSpace=wrap;html=1;backgroundOutline=1;fillColor=#fff2cc;strokeColor=#d6b656;" vertex="1" parent="WIyWlLk6GJQsqaUBKTNV-1">
          <mxGeometry x="-270" y="322" width="210" height="166" as="geometry" />
        </mxCell>
        <mxCell id="9c52_iwOYSgnLn3xxYBy-194" value="SSH COMMANDS, NOT NECESERAY FOR NOW&lt;br&gt;&lt;br&gt;CAN LEAVE BLANK" style="text;html=1;align=center;verticalAlign=middle;whiteSpace=wrap;rounded=1;strokeColor=#B09500;fillColor=#FFB570;fontColor=#000000;" vertex="1" parent="WIyWlLk6GJQsqaUBKTNV-1">
          <mxGeometry x="-220" y="1040" width="150" height="70" as="geometry" />
        </mxCell>
        <mxCell id="9c52_iwOYSgnLn3xxYBy-195" style="edgeStyle=orthogonalEdgeStyle;rounded=0;orthogonalLoop=1;jettySize=auto;html=1;endSize=10;endArrow=block;endFill=0;fillColor=#e3c800;strokeColor=#000000;" edge="1" parent="WIyWlLk6GJQsqaUBKTNV-1">
          <mxGeometry relative="1" as="geometry">
            <mxPoint x="-70" y="1074.5" as="sourcePoint" />
            <mxPoint x="30" y="1075" as="targetPoint" />
          </mxGeometry>
        </mxCell>
        <mxCell id="9c52_iwOYSgnLn3xxYBy-196" value="NOTE&lt;div&gt;&lt;br&gt;&lt;div&gt;In the future i will try to send via WebSocket directly from the containers. From now more stable is unix Socket because is critical in the Brain&lt;/div&gt;&lt;/div&gt;" style="shape=process;whiteSpace=wrap;html=1;backgroundOutline=1;fillColor=#fff2cc;strokeColor=#d6b656;" vertex="1" parent="WIyWlLk6GJQsqaUBKTNV-1">
          <mxGeometry x="890" y="290" width="210" height="166" as="geometry" />
        </mxCell>
        <mxCell id="9c52_iwOYSgnLn3xxYBy-197" value="" style="shape=flexArrow;endArrow=classic;html=1;rounded=0;fillColor=default;width=31.666666666666668;endSize=5.391666666666667;endWidth=36.94444444444444;" edge="1" parent="WIyWlLk6GJQsqaUBKTNV-1">
          <mxGeometry width="50" height="50" relative="1" as="geometry">
            <mxPoint x="340" y="390.00000000000006" as="sourcePoint" />
            <mxPoint x="440" y="390.00000000000006" as="targetPoint" />
          </mxGeometry>
        </mxCell>
        <mxCell id="9c52_iwOYSgnLn3xxYBy-201" value="UNIX SOCKET" style="edgeLabel;html=1;align=center;verticalAlign=middle;resizable=0;points=[];" vertex="1" connectable="0" parent="9c52_iwOYSgnLn3xxYBy-197">
          <mxGeometry x="0.2385" y="3" relative="1" as="geometry">
            <mxPoint x="-16" y="3" as="offset" />
          </mxGeometry>
        </mxCell>
        <mxCell id="9c52_iwOYSgnLn3xxYBy-203" value="" style="shape=flexArrow;endArrow=classic;html=1;rounded=0;fillColor=default;width=49.16666666666667;endSize=4.166666666666667;endWidth=36.94444444444444;" edge="1" parent="WIyWlLk6GJQsqaUBKTNV-1">
          <mxGeometry width="50" height="50" relative="1" as="geometry">
            <mxPoint x="675" y="390" as="sourcePoint" />
            <mxPoint x="675" y="290" as="targetPoint" />
          </mxGeometry>
        </mxCell>
        <mxCell id="9c52_iwOYSgnLn3xxYBy-204" value="WEB&lt;br&gt;SOCKET" style="edgeLabel;html=1;align=center;verticalAlign=middle;resizable=0;points=[];" vertex="1" connectable="0" parent="9c52_iwOYSgnLn3xxYBy-203">
          <mxGeometry x="0.2385" y="3" relative="1" as="geometry">
            <mxPoint x="3" y="13" as="offset" />
          </mxGeometry>
        </mxCell>
        <mxCell id="9c52_iwOYSgnLn3xxYBy-205" value="" style="shape=flexArrow;endArrow=classic;startArrow=classic;html=1;rounded=0;fillColor=default;width=26;startSize=5.776666666666666;" edge="1" parent="WIyWlLk6GJQsqaUBKTNV-1">
          <mxGeometry width="100" height="100" relative="1" as="geometry">
            <mxPoint x="468" y="210" as="sourcePoint" />
            <mxPoint x="598" y="210" as="targetPoint" />
          </mxGeometry>
        </mxCell>
        <mxCell id="9c52_iwOYSgnLn3xxYBy-208" value="SSH to HOST" style="edgeLabel;html=1;align=center;verticalAlign=middle;resizable=0;points=[];" vertex="1" connectable="0" parent="9c52_iwOYSgnLn3xxYBy-205">
          <mxGeometry x="-0.8154" y="-1" relative="1" as="geometry">
            <mxPoint x="54" y="-2" as="offset" />
          </mxGeometry>
        </mxCell>
        <mxCell id="9c52_iwOYSgnLn3xxYBy-214" style="edgeStyle=orthogonalEdgeStyle;rounded=0;orthogonalLoop=1;jettySize=auto;html=1;" edge="1" parent="WIyWlLk6GJQsqaUBKTNV-1" source="9c52_iwOYSgnLn3xxYBy-209">
          <mxGeometry relative="1" as="geometry">
            <mxPoint x="540" y="200" as="targetPoint" />
          </mxGeometry>
        </mxCell>
        <mxCell id="9c52_iwOYSgnLn3xxYBy-209" value="NOTE&lt;div&gt;&lt;br&gt;&lt;div&gt;It can be without feedback from the ssh commad&lt;/div&gt;&lt;/div&gt;" style="shape=process;whiteSpace=wrap;html=1;backgroundOutline=1;fillColor=#fff2cc;strokeColor=#d6b656;" vertex="1" parent="WIyWlLk6GJQsqaUBKTNV-1">
          <mxGeometry x="890" y="104" width="200" height="66" as="geometry" />
        </mxCell>
        <mxCell id="9c52_iwOYSgnLn3xxYBy-216" value="&lt;b&gt;TODO&lt;/b&gt;" style="text;html=1;align=center;verticalAlign=middle;whiteSpace=wrap;rounded=0;" vertex="1" parent="WIyWlLk6GJQsqaUBKTNV-1">
          <mxGeometry x="10" y="1750" width="60" height="30" as="geometry" />
        </mxCell>
        <mxCell id="9c52_iwOYSgnLn3xxYBy-218" value="&lt;div&gt;&lt;b&gt;1. Flask app&lt;/b&gt;&lt;/div&gt;&lt;div&gt;&lt;span style=&quot;background-color: transparent; color: light-dark(rgb(0, 0, 0), rgb(255, 255, 255));&quot;&gt;- Handle the multithreading for the ssh commands, camera feed, and metrics display.&amp;nbsp;&lt;/span&gt;&lt;/div&gt;&lt;div&gt;&lt;span style=&quot;background-color: transparent; color: light-dark(rgb(0, 0, 0), rgb(255, 255, 255));&quot;&gt;- Unix to web socket for metric and camera frames.&lt;/span&gt;&lt;/div&gt;&lt;div&gt;&lt;span style=&quot;background-color: transparent; color: light-dark(rgb(0, 0, 0), rgb(255, 255, 255));&quot;&gt;- Most important robustness. The ssh command for start and stop are the most important, as for the metrics and cam frames in case of error retry till success.&amp;nbsp; &amp;nbsp;&lt;/span&gt;&lt;/div&gt;&lt;div&gt;&lt;br&gt;&lt;/div&gt;&lt;b&gt;2. Frontend&amp;nbsp;&lt;/b&gt;&lt;div&gt;preferably something simple, basic html with css is enough.&lt;/div&gt;" style="text;html=1;align=left;verticalAlign=middle;whiteSpace=wrap;rounded=0;" vertex="1" parent="WIyWlLk6GJQsqaUBKTNV-1">
          <mxGeometry x="30" y="1780" width="247" height="220" as="geometry" />
        </mxCell>
      </root>
    </mxGraphModel>
  </diagram>
</mxfile>
